<?xml version="1.0" standalone="no"?>
<!DOCTYPE svg PUBLIC "-//W3C//DTD SVG 20010904//EN"
 "http://www.w3.org/TR/2001/REC-SVG-20010904/DTD/svg10.dtd">
<svg version="1.0" xmlns="http://www.w3.org/2000/svg"
 width="611.000000pt" height="611.000000pt" viewBox="0 0 611.000000 611.000000"
 preserveAspectRatio="xMidYMid meet">
<metadata>
Created by potrace 1.14, written by Peter Selinger 2001-2017
</metadata>
<g transform="translate(0.000000,611.000000) scale(0.100000,-0.100000)"
fill="#000000" stroke="none">
<path d="M2858 6105 c-2 -1 -39 -5 -83 -9 -98 -8 -145 -14 -210 -27 -27 -5
-63 -11 -80 -13 -207 -28 -609 -168 -850 -296 -188 -101 -416 -254 -545 -366
-175 -152 -292 -273 -423 -437 -223 -276 -388 -580 -512 -942 -24 -71 -88
-311 -99 -375 -3 -19 -8 -45 -11 -58 -9 -46 -25 -175 -32 -255 -15 -160 -8
-549 11 -647 3 -14 7 -45 10 -70 3 -25 8 -58 11 -75 3 -16 10 -55 16 -85 57
-297 186 -642 337 -901 56 -95 114 -192 122 -199 3 -3 25 -34 50 -70 24 -36
52 -74 61 -85 137 -165 178 -211 241 -275 107 -109 229 -216 343 -302 90 -67
251 -178 260 -178 2 0 36 -19 77 -43 67 -39 159 -86 283 -143 121 -56 303
-118 485 -163 105 -27 135 -33 225 -47 17 -3 55 -9 85 -14 142 -24 519 -33
700 -18 136 12 339 47 480 83 117 30 271 78 335 105 320 135 519 245 735 406
109 83 136 105 239 199 424 386 738 903 885 1456 48 179 68 291 92 504 10 89
11 443 2 555 -73 864 -526 1673 -1229 2191 -48 35 -95 70 -105 77 -156 104
-307 186 -504 275 -250 112 -575 196 -911 233 -47 6 -486 13 -491 9z"/>
</g>
</svg>
